<?xml version="1.0" standalone="no"?>
<!DOCTYPE svg PUBLIC "-//W3C//DTD SVG 20010904//EN"
 "http://www.w3.org/TR/2001/REC-SVG-20010904/DTD/svg10.dtd">
<svg version="1.0" xmlns="http://www.w3.org/2000/svg"
 width="595.000000pt" height="479.000000pt" viewBox="0 0 595.000000 479.000000"
 preserveAspectRatio="xMidYMid meet">
<g transform="translate(0.000000,479.000000) scale(0.100000,-0.100000)"
fill="#000000" stroke="none">
<path d="M3518 4778 c4 -4 40 -10 79 -14 40 -4 70 -10 67 -15 -2 -4 6 -7 18
-7 45 3 79 -2 74 -10 -3 -5 5 -8 17 -7 12 1 33 -1 47 -5 14 -4 45 -14 70 -21
25 -7 50 -17 57 -22 7 -5 16 -6 21 -3 6 3 15 -1 22 -9 7 -8 23 -15 36 -15 36
0 136 -51 130 -66 -3 -7 -1 -16 5 -19 5 -4 9 -3 8 2 -4 21 3 22 31 8 17 -9 30
-12 30 -8 0 5 4 3 8 -3 4 -5 32 -23 62 -38 30 -15 60 -33 65 -39 6 -7 17 -12
25 -12 8 0 14 -7 12 -15 -2 -8 0 -12 4 -7 4 4 19 -3 32 -15 14 -13 22 -17 17
-9 -5 9 -3 12 6 9 8 -3 13 -11 12 -17 -2 -6 6 -11 17 -11 11 0 20 -5 20 -12 0
-6 3 -9 6 -5 4 3 26 -9 49 -28 23 -19 46 -31 50 -27 5 4 5 2 1 -5 -3 -7 2 -14
13 -18 13 -4 18 -12 15 -23 -5 -14 -4 -15 5 -2 5 8 13 11 17 7 4 -3 1 -15 -7
-24 -11 -15 -11 -16 1 -5 17 14 44 16 35 2 -3 -5 0 -7 9 -4 11 4 14 0 11 -15
-2 -13 1 -18 10 -15 13 5 124 -73 147 -104 18 -24 55 -52 43 -33 -5 10 -4 12
3 7 7 -4 12 -14 12 -22 0 -8 4 -13 9 -9 6 3 15 -4 21 -15 6 -11 17 -20 25 -20
7 0 17 -5 21 -12 5 -7 3 -8 -6 -3 -9 5 -11 4 -6 -3 4 -7 14 -12 22 -12 8 0 13
-4 10 -9 -3 -4 10 -17 29 -27 19 -10 35 -22 35 -27 0 -4 -4 -6 -8 -3 -5 3 -9
-1 -9 -8 0 -8 10 -12 24 -10 21 2 28 -6 24 -29 -1 -5 3 -6 9 -2 14 9 13 -8 -2
-25 -11 -12 -10 -12 4 -1 18 13 24 10 89 -53 25 -24 27 -31 17 -45 -8 -10 -4
-9 12 4 14 11 22 16 18 11 -4 -4 13 -27 37 -51 24 -23 41 -46 37 -50 -4 -5 -1
-5 6 -1 11 7 17 -5 13 -27 -1 -5 2 -6 6 -4 5 2 18 -6 31 -19 12 -13 19 -24 15
-24 -4 0 3 -7 15 -16 14 -10 21 -22 17 -31 -4 -12 -2 -13 8 -5 10 8 20 2 42
-26 17 -20 29 -41 27 -45 -1 -5 2 -6 8 -2 5 3 10 2 10 -3 0 -5 10 -20 23 -34
24 -27 64 -76 100 -125 13 -18 28 -29 32 -25 5 4 5 -1 2 -11 -4 -10 -3 -16 2
-12 9 5 26 -12 26 -28 0 -10 33 -52 68 -84 15 -15 27 -32 27 -40 0 -7 4 -13 9
-13 10 0 27 -39 23 -53 -1 -5 1 -6 6 -3 5 3 22 -13 38 -34 16 -22 33 -40 37
-40 5 0 6 -4 2 -9 -3 -5 -1 -12 4 -15 23 -14 0 47 -34 96 -120 166 -353 451
-499 608 -607 658 -1296 1087 -1798 1119 -53 3 -94 3 -90 -1z"/>
<path d="M3219 4756 c-337 -89 -582 -345 -707 -738 -73 -227 -97 -407 -96
-728 0 -260 13 -407 60 -680 26 -153 90 -433 106 -462 11 -23 -14 -74 -42 -83
-10 -3 -95 2 -187 12 -208 21 -710 25 -878 5 -447 -52 -762 -153 -1025 -327
-101 -67 -254 -222 -308 -312 -84 -139 -131 -285 -132 -402 0 -70 9 -61 16 15
3 33 10 63 15 69 5 5 9 22 9 37 0 15 4 28 10 28 5 0 9 3 9 8 -4 25 3 63 14 74
8 7 12 19 9 27 -3 9 0 11 8 6 8 -5 11 -4 7 3 -9 13 2 44 13 37 4 -3 14 3 21
13 13 15 12 16 -3 3 -10 -7 -18 -11 -18 -8 0 14 24 57 32 57 4 0 8 7 8 15 0 8
5 15 11 15 5 0 7 5 4 10 -3 6 -1 10 4 10 6 0 11 6 11 14 0 8 7 16 15 20 8 3
15 13 15 21 0 9 4 14 9 10 5 -3 12 4 16 15 4 11 11 18 16 14 5 -3 8 0 7 8 -2
7 3 12 10 11 6 -2 12 2 12 7 0 6 10 15 23 20 12 5 16 9 9 9 -7 1 -1 14 14 31
15 16 31 27 35 24 5 -3 12 2 15 11 4 9 13 14 20 11 9 -3 11 0 7 11 -4 11 -2
14 5 9 7 -4 12 -2 12 4 0 6 6 10 14 8 8 -2 15 1 15 6 0 13 61 47 72 40 5 -3 8
0 7 6 -3 12 79 61 135 79 24 8 35 17 30 24 -4 7 2 5 12 -3 10 -8 16 -10 12 -4
-8 14 20 27 35 17 6 -3 8 -2 5 4 -4 6 12 15 36 22 23 6 62 20 87 30 42 17 160
49 205 56 11 2 51 10 89 19 39 9 89 17 112 18 23 1 41 5 39 8 -2 3 11 5 28 5
18 1 89 7 158 14 171 17 452 18 699 1 113 -8 219 -14 237 -15 17 0 29 -4 26
-9 -7 -10 55 3 80 18 11 6 27 29 37 51 14 33 15 43 4 60 -17 28 -97 363 -93
393 1 4 0 9 -1 12 -5 14 -36 206 -44 275 -3 28 -9 86 -14 130 -6 44 -10 152
-11 239 -1 88 -4 163 -7 167 -2 4 0 10 6 14 5 3 10 13 10 21 0 9 -5 12 -12 8
-7 -5 -8 -3 -2 7 5 8 7 40 5 73 -2 40 0 56 8 52 8 -5 9 11 4 55 -4 38 -3 60 3
56 6 -3 8 9 6 29 -2 19 0 34 5 34 5 0 10 19 11 42 2 42 40 199 51 208 3 3 8
18 9 34 6 44 47 147 57 139 4 -5 5 -3 2 4 -4 6 -1 17 6 25 8 7 11 20 9 28 -4
12 -2 13 9 3 12 -10 15 -8 15 7 0 10 -4 17 -8 14 -4 -2 5 16 18 41 14 25 30
42 36 39 5 -3 9 0 7 7 -3 29 1 50 10 44 5 -3 13 0 17 6 5 8 2 10 -7 5 -8 -4
-5 -1 5 8 10 8 24 12 30 9 6 -4 4 2 -4 12 -9 11 -10 16 -2 11 7 -4 12 -2 12 4
0 7 7 10 14 7 10 -4 13 -1 9 9 -3 7 0 14 6 14 6 0 10 4 9 9 -2 5 6 17 17 26
11 9 13 14 5 10 -8 -4 -6 0 4 9 11 9 32 27 47 40 15 13 30 22 33 19 3 -4 6 1
6 10 0 10 7 15 20 12 11 -2 19 -1 19 3 -3 18 2 35 7 29 4 -4 20 3 35 14 16 11
38 21 48 22 11 1 18 3 15 6 -7 7 117 62 127 56 5 -4 9 -1 9 5 0 6 4 9 9 5 5
-3 12 -1 16 5 3 6 18 10 33 11 71 0 82 2 82 10 0 5 15 10 33 10 17 1 46 5 62
9 23 6 13 8 -40 8 -43 1 -103 -8 -156 -22z"/>
<path d="M2841 4506 c-8 -10 -9 -16 -1 -21 6 -4 9 -1 8 7 -2 7 3 12 10 10 8
-1 11 2 7 8 -8 13 -10 13 -24 -4z"/>
<path d="M4995 4139 c-4 -6 -14 -8 -24 -4 -13 5 -14 4 -3 -6 10 -11 15 -10 29
4 10 9 14 17 11 17 -4 0 -10 -5 -13 -11z"/>
<path d="M3467 3891 c-20 -10 -34 -15 -31 -10 3 5 -2 6 -10 3 -9 -3 -14 -11
-13 -17 1 -7 -4 -11 -10 -9 -7 1 -13 -5 -13 -14 0 -8 -4 -12 -10 -9 -5 3 -10
0 -10 -9 0 -8 -3 -16 -7 -18 -11 -4 -59 -105 -72 -148 -32 -111 -39 -389 -12
-540 6 -30 12 -77 15 -105 2 -27 7 -59 10 -70 3 -11 17 -76 31 -145 14 -69 33
-149 41 -178 9 -29 13 -59 10 -68 -3 -8 -2 -13 3 -10 6 4 48 -112 55 -154 1
-3 4 -9 7 -15 11 -17 27 -85 32 -127 1 -9 4 -15 7 -13 5 3 39 -86 45 -115 0
-3 6 -15 14 -28 10 -19 10 -26 -1 -40 -12 -15 -11 -16 5 -3 15 12 17 11 17 -7
0 -11 7 -33 15 -48 8 -16 15 -37 15 -47 0 -11 5 -15 11 -11 8 4 9 0 4 -15 -4
-13 -2 -21 5 -21 6 0 10 -6 9 -12 -3 -21 28 -81 52 -101 12 -11 47 -28 78 -38
31 -11 63 -22 71 -26 8 -3 18 -7 22 -7 3 -1 9 -4 13 -8 4 -4 13 -4 21 -1 8 3
14 0 14 -6 0 -6 8 -11 18 -11 21 -1 122 -34 154 -51 13 -7 29 -12 36 -10 8 1
25 -5 38 -14 14 -9 30 -13 36 -9 7 4 8 3 4 -4 -5 -8 1 -12 17 -12 13 0 27 -3
31 -7 4 -5 11 -8 14 -9 28 -2 72 -17 72 -24 0 -5 16 -12 35 -16 19 -3 33 -10
30 -14 -3 -5 2 -7 12 -6 9 2 36 -8 60 -21 25 -13 49 -21 54 -18 5 4 9 1 9 -4
0 -6 7 -11 16 -11 8 0 12 -4 9 -10 -4 -6 1 -7 11 -3 12 4 15 3 10 -6 -4 -6 -4
-11 1 -10 27 5 56 -4 73 -21 21 -21 35 -27 25 -10 -9 15 2 12 30 -6 14 -9 23
-20 20 -24 -3 -5 4 -6 15 -3 13 3 34 -5 57 -23 20 -15 33 -22 29 -16 -5 8 -2
10 8 6 9 -3 13 -11 9 -17 -3 -6 -1 -7 5 -3 11 7 114 -44 139 -70 8 -8 23 -14
34 -14 13 0 18 -4 13 -12 -4 -7 -3 -10 1 -5 5 4 17 -1 28 -10 11 -10 17 -12
13 -6 -4 7 19 -1 51 -19 173 -93 186 -102 176 -112 -4 -4 1 -4 12 0 15 6 17 4
11 -12 -5 -15 -4 -16 5 -7 14 14 42 6 32 -10 -3 -5 -1 -7 5 -3 6 3 18 -1 26
-10 9 -8 16 -13 16 -9 0 3 19 -7 43 -23 23 -16 57 -37 75 -46 18 -9 30 -21 27
-26 -4 -6 1 -7 11 -3 13 5 15 3 9 -7 -6 -10 -4 -12 8 -7 12 4 14 2 10 -10 -4
-11 -2 -14 5 -9 7 4 37 -10 68 -31 30 -21 63 -42 72 -48 10 -5 33 -21 52 -35
19 -14 42 -30 51 -35 60 -37 88 -62 84 -72 -2 -7 1 -15 7 -19 7 -5 8 -2 3 6
-6 10 -4 12 8 7 11 -4 17 -1 17 8 0 27 -371 282 -391 269 -7 -4 -9 -3 -6 3 12
20 -302 203 -623 363 -350 176 -725 330 -1080 445 -80 25 -150 52 -157 58 -18
18 -136 326 -204 528 -66 202 -138 485 -171 674 -18 108 -22 169 -23 355 0
206 2 231 22 295 64 199 165 263 347 221 463 -109 1199 -887 1800 -1904 63
-107 91 -156 174 -307 57 -105 265 -526 291 -590 19 -48 20 -49 20 -17 1 18
-3 40 -8 50 -6 9 -21 43 -35 76 -21 48 -24 62 -14 75 10 13 10 14 -2 4 -11
-11 -19 -2 -46 47 -39 74 -50 112 -30 104 8 -3 17 -1 20 4 3 5 -6 8 -20 6 -20
-2 -29 5 -46 39 -12 23 -21 45 -20 50 1 4 -3 7 -8 7 -6 0 -10 9 -10 19 0 11
-4 23 -10 26 -5 3 -19 27 -30 53 -11 25 -27 53 -35 62 -9 10 -11 20 -5 30 15
24 11 36 -5 14 -12 -16 -17 -12 -14 12 0 4 -3 10 -8 13 -18 12 -63 103 -56
114 3 6 1 7 -5 3 -10 -6 -35 25 -29 35 1 2 0 3 -2 1 -7 -4 -31 58 -31 82 0 17
-2 18 -10 6 -9 -13 -14 -7 -11 13 0 4 -3 7 -9 7 -5 0 -6 7 -3 17 4 11 3 14 -5
9 -7 -4 -12 -1 -12 9 0 8 -7 18 -15 21 -8 4 -13 10 -10 14 3 5 1 11 -5 15 -6
4 -7 11 -4 17 5 7 2 8 -6 3 -10 -6 -12 -4 -7 8 3 9 1 19 -5 23 -7 5 -8 2 -3
-6 5 -9 4 -11 -3 -6 -7 4 -12 12 -12 17 0 6 -12 26 -26 45 -15 19 -24 40 -20
49 3 10 2 13 -5 10 -13 -9 -38 25 -32 42 3 8 0 13 -8 11 -9 -2 -14 5 -13 18 0
16 -4 20 -15 16 -14 -5 -14 -4 -2 12 12 15 12 17 0 14 -8 -2 -13 3 -11 10 1 8
-2 11 -7 7 -10 -6 -57 73 -53 88 1 5 -2 6 -7 2 -12 -7 -33 29 -23 40 4 5 2 5
-5 1 -7 -3 -14 2 -18 14 -3 11 -10 20 -15 20 -5 0 -6 7 -3 17 5 12 3 14 -7 8
-10 -6 -12 -4 -7 8 4 10 2 16 -6 14 -7 -1 -11 6 -11 15 1 10 -1 16 -5 13 -4
-2 -25 17 -46 43 -22 26 -32 41 -23 34 12 -10 18 -10 24 -1 4 7 3 9 -3 6 -12
-8 -80 58 -89 85 -3 10 -10 18 -15 18 -5 0 -9 5 -9 11 0 5 -14 24 -30 42 -17
18 -28 38 -24 47 3 8 2 11 -2 7 -10 -10 -35 13 -27 26 3 5 2 7 -4 4 -5 -3 -19
6 -31 21 -87 109 -121 150 -150 179 -19 19 -31 40 -28 48 3 10 0 12 -11 8 -12
-5 -14 -3 -8 7 6 10 4 12 -8 7 -9 -3 -19 -1 -23 5 -4 7 -3 8 4 4 28 -17 8 11
-23 34 -19 14 -33 30 -30 37 2 6 -4 17 -13 25 -15 12 -16 11 -3 -4 7 -10 9
-18 4 -18 -11 0 -62 58 -56 64 2 2 -5 7 -17 11 -11 4 -32 24 -46 46 -13 22
-29 37 -34 34 -6 -3 -10 1 -10 10 0 9 -4 14 -9 11 -9 -6 -26 22 -22 37 1 5 -3
6 -9 2 -6 -3 -8 -12 -4 -18 3 -7 -3 -1 -15 13 -11 14 -32 36 -48 49 -15 13
-23 20 -16 17 6 -4 14 -2 18 3 3 6 -5 8 -20 5 -14 -2 -25 0 -25 6 0 5 -18 21
-40 35 -26 16 -38 30 -34 38 4 7 4 9 -1 5 -11 -10 -96 53 -88 65 4 6 1 7 -6 2
-15 -9 -124 63 -115 76 3 5 -2 6 -11 3 -8 -4 -23 0 -32 7 -9 8 -19 13 -22 13
-13 -3 -31 8 -26 16 3 4 -5 8 -18 8 -12 0 -53 11 -92 26 -88 32 -192 36 -248
7z"/>
<path d="M3778 3873 c7 -3 16 -2 19 1 4 3 -2 6 -13 5 -11 0 -14 -3 -6 -6z"/>
<path d="M4053 3735 c0 -8 4 -12 9 -9 5 3 6 10 3 15 -9 13 -12 11 -12 -6z"/>
<path d="M4603 3255 c0 -8 4 -12 9 -9 5 3 6 10 3 15 -9 13 -12 11 -12 -6z"/>
<path d="M4706 3177 c3 -10 9 -15 12 -12 3 3 0 11 -7 18 -10 9 -11 8 -5 -6z"/>
<path d="M5130 2411 c0 -6 4 -13 10 -16 6 -3 7 1 4 9 -7 18 -14 21 -14 7z"/>
<path d="M5346 2245 c-9 -26 -7 -32 5 -12 6 10 9 21 6 23 -2 3 -7 -2 -11 -11z"/>
<path d="M3661 2024 c0 -11 3 -14 6 -6 3 7 2 16 -1 19 -3 4 -6 -2 -5 -13z"/>
<path d="M5445 1879 c-4 -6 -5 -12 -2 -15 2 -3 7 2 10 11 7 17 1 20 -8 4z"/>
<path d="M256 1657 c3 -10 9 -15 12 -12 3 3 0 11 -7 18 -10 9 -11 8 -5 -6z"/>
<path d="M1540 1223 c-103 -9 -234 -25 -258 -33 -23 -8 -50 -14 -112 -24 -8
-1 -34 -12 -57 -24 -24 -13 -43 -19 -43 -15 0 4 -13 -6 -29 -21 -18 -17 -34
-25 -42 -21 -8 5 -10 4 -5 -3 10 -16 -6 -15 -24 1 -12 10 -12 9 -2 -4 9 -13 6
-21 -18 -44 -16 -15 -27 -32 -24 -36 6 -11 -14 -21 -27 -14 -7 5 -4 14 8 28
l18 22 -22 -19 c-18 -15 -20 -22 -12 -32 7 -9 8 -27 3 -51 -4 -21 -7 -41 -6
-45 1 -4 3 -32 4 -62 1 -33 6 -50 11 -43 5 8 7 5 5 -8 -3 -26 54 -142 109
-224 23 -35 40 -67 37 -72 -3 -5 3 -6 12 -2 13 5 16 3 11 -10 -3 -9 -3 -16 1
-14 5 1 55 -45 113 -103 57 -58 126 -123 152 -145 77 -65 102 -88 100 -96 -1
-4 7 -15 19 -25 12 -11 18 -13 14 -6 -4 6 -2 12 3 12 6 0 11 -4 11 -10 0 -5 6
-10 13 -10 18 0 49 -35 40 -44 -4 -4 0 -4 10 0 10 3 19 1 22 -8 3 -8 20 -15
38 -16 l32 -2 -31 19 c-39 24 -232 179 -299 240 -188 172 -338 366 -382 495
-25 74 -23 170 5 224 49 93 188 160 427 204 110 20 585 17 760 -6 301 -38 786
-136 857 -172 20 -10 48 -57 116 -196 100 -203 180 -349 315 -573 111 -185
145 -235 159 -235 7 0 7 4 1 12 -6 7 -9 21 -8 31 2 9 -1 15 -5 12 -5 -3 -21
17 -37 45 -15 27 -32 50 -36 50 -4 0 -2 10 4 22 11 21 11 22 -4 9 -15 -12 -17
-11 -17 3 0 9 -4 16 -10 16 -5 0 -7 8 -3 18 3 9 3 14 -2 10 -10 -9 -45 53 -37
66 3 5 0 6 -5 3 -6 -4 -19 10 -28 31 -10 20 -27 48 -39 61 -11 13 -14 21 -6
16 8 -5 4 4 -9 18 -14 15 -21 27 -16 27 4 0 1 8 -8 18 -28 31 -118 213 -111
224 4 7 3 8 -4 4 -7 -4 -12 -1 -12 6 0 7 -9 24 -20 38 -22 28 -26 45 -8 34 7
-4 8 -3 4 5 -4 6 -11 9 -15 7 -11 -7 -43 63 -35 77 4 7 3 9 -1 4 -8 -7 -76
124 -74 141 3 19 -2 23 -16 12 -8 -7 -15 -8 -15 -3 0 10 -130 51 -184 58 -18
3 -87 18 -154 35 -68 17 -126 29 -130 27 -4 -3 -18 0 -32 6 -14 5 -32 9 -41 8
-9 -1 -36 3 -60 9 -50 12 -50 12 -224 33 -252 31 -489 42 -635 30z"/>
<path d="M61 1004 c0 -11 3 -14 6 -6 3 7 2 16 -1 19 -3 4 -6 -2 -5 -13z"/>
<path d="M11 852 c-4 -194 130 -528 316 -789 44 -63 60 -76 60 -48 0 8 -5 11
-10 8 -6 -4 -8 0 -4 10 3 9 0 20 -7 24 -7 5 -21 22 -31 38 -10 17 -27 40 -38
52 -11 12 -16 27 -12 34 5 7 4 10 -2 6 -6 -4 -14 0 -17 9 -9 22 -8 26 6 18 7
-4 8 -3 4 5 -4 6 -11 9 -16 6 -11 -7 -29 26 -23 42 2 6 -1 15 -8 19 -8 5 -9 3
-4 -6 5 -9 4 -11 -4 -6 -6 4 -9 11 -6 16 3 5 0 12 -7 17 -7 4 -24 33 -37 63
-12 30 -31 73 -42 95 -10 22 -19 47 -19 55 0 9 -4 20 -9 25 -13 14 -41 112
-34 119 3 3 1 12 -6 20 -6 8 -11 18 -10 22 1 5 -1 16 -4 24 -4 8 -13 53 -21
100 l-14 85 -1 -63z"/>
<path d="M4553 410 c-13 -5 -23 -14 -23 -20 0 -5 -9 -10 -19 -10 -11 0 -23 -5
-27 -12 -4 -6 -3 -8 3 -5 7 4 9 -9 8 -36 -2 -24 3 -52 11 -64 13 -20 12 -22
-3 -17 -10 3 -6 -2 9 -11 30 -17 61 -68 50 -80 -4 -5 -2 -5 5 -1 14 8 45 -33
36 -47 -3 -6 -1 -7 5 -3 7 4 12 2 12 -4 0 -6 12 -23 28 -37 15 -15 20 -23 12
-18 -8 4 -12 5 -8 0 4 -4 2 -15 -5 -24 -11 -14 -10 -14 6 -1 17 12 20 12 28
-3 6 -9 16 -17 24 -17 8 0 -27 58 -84 138 -54 76 -101 148 -105 159 -11 34 11
73 49 89 34 14 36 13 157 -47 143 -72 325 -174 486 -272 87 -53 117 -66 125
-57 7 6 7 10 2 8 -6 -2 -17 3 -25 10 -31 26 -87 62 -127 81 -24 11 -43 25 -43
30 0 6 -3 10 -7 9 -5 0 -16 2 -26 7 -15 6 -15 10 -5 23 11 13 11 14 0 8 -7 -4
-19 -2 -27 4 -8 6 -19 9 -24 6 -9 -6 -67 26 -101 56 -8 7 -22 13 -30 13 -17 0
-40 17 -34 26 2 4 -3 10 -12 13 -8 3 -12 2 -9 -3 8 -13 -58 20 -67 33 -4 6 -8
7 -8 2 0 -5 -7 -3 -15 4 -8 7 -15 9 -15 4 -1 -5 -10 2 -20 15 -11 13 -20 21
-20 18 0 -3 -25 5 -55 19 -59 26 -77 28 -112 14z m522 -230 c3 -6 -1 -7 -9 -4
-18 7 -21 14 -7 14 6 0 13 -4 16 -10z"/>
<path d="M4944 302 c3 -6 -2 -13 -11 -15 -16 -4 -16 -5 -1 -6 21 -1 32 15 17
25 -7 4 -9 3 -5 -4z"/>
<path d="M5865 301 c-3 -5 -2 -12 3 -15 5 -3 9 1 9 9 0 17 -3 19 -12 6z"/>
<path d="M5903 283 c-14 -16 -39 -47 -56 -70 -17 -24 -37 -43 -44 -43 -8 0
-12 -4 -9 -8 3 -5 -10 -24 -29 -42 -19 -19 -35 -39 -35 -46 0 -7 -11 -21 -25
-32 -24 -19 -33 -42 -17 -42 8 0 255 285 260 301 7 19 -20 8 -45 -18z"/>
<path d="M1345 280 c3 -5 8 -10 11 -10 2 0 4 5 4 10 0 6 -5 10 -11 10 -5 0 -7
-4 -4 -10z"/>
<path d="M250 91 c0 -6 4 -13 10 -16 6 -3 7 1 4 9 -7 18 -14 21 -14 7z"/>
<path d="M5047 89 c7 -7 15 -10 18 -7 3 3 -2 9 -12 12 -14 6 -15 5 -6 -5z"/>
<path d="M3583 55 c0 -8 4 -12 9 -9 5 3 6 10 3 15 -9 13 -12 11 -12 -6z"/>
</g>
</svg>
